<?xml version="1.0" standalone="no"?>
<!DOCTYPE svg PUBLIC "-//W3C//DTD SVG 1.1//EN" "http://www.w3.org/Graphics/SVG/1.1/DTD/svg11.dtd"><svg t="1641365010187"
    class="icon" viewBox="0 0 1024 1024" version="1.1" xmlns="http://www.w3.org/2000/svg" id="935"
    xmlns:xlink="http://www.w3.org/1999/xlink">
    <defs>
        <style type="text/css"></style>
    </defs>
    <path
    stroke-width="4"
    stroke="#646464"
    stroke-opacity="0.5"
    fill-opacity="1"
    fill="rgb(0,73,231)"
        d="M847.5136 85.4016H176.4864A131.7376 131.7376 0 0 0 44.6464 217.1904V696.32a131.7888 131.7888 0 0 0 131.84 131.84H378.88l-10.5472 14.3872a61.44 61.44 0 0 0-11.9808 35.84 59.9552 59.9552 0 0 0 59.9552 59.904h191.6928a61.1328 61.1328 0 0 0 35.84-11.9808 60.2112 60.2112 0 0 0 11.9808-83.8656l-10.7008-14.08h202.24A131.7888 131.7888 0 0 0 979.3536 696.32V217.1904a131.7376 131.7376 0 0 0-131.84-131.7888zM763.648 504.832V624.64a35.84 35.84 0 0 1-71.68 0V504.832a35.84 35.84 0 1 1 71.68 0zM476.16 624.64V289.1264a35.84 35.84 0 0 1 71.68 0V624.64a35.84 35.84 0 0 1-71.68 0zM332.2368 384.9728V624.64a35.84 35.84 0 0 1-71.68 0V384.9728a35.84 35.84 0 0 1 71.68 0z"
        id="936"></path>
</svg>